<svg id="Layer_1" data-name="Layer 1" xmlns="http://www.w3.org/2000/svg" viewBox="0 0 2510.21 433.44"><defs><style>.cls-1{fill:none;stroke:#ddd;stroke-miterlimit:10;}.cls-2{fill:#ed1b23;}.cls-3{fill:#939598;}</style></defs><title>Text-slogan-02</title><path class="cls-1" d="M47.52,128.18"/><polygon class="cls-2" points="146.32 0.23 112.73 0.23 0 195.32 36.81 195.32 61.66 149.76 77.3 121.7 128.83 28.75 180.82 121.7 196.47 149.76 221.78 195.32 261.81 195.32 146.32 0.23"/><path d="M520.58.23q54.29,0,78.22,15.18,42.33,26.69,42.33,81.9,0,98-120.55,98H408.31V.23Zm-4.14,29H445.12V165.87h71.32q46,0,66.95-15.18t20.93-53.83q0-37.27-22.09-52.92Q562,29.22,516.44,29.22Z"/><path d="M868,195.09,755.69,0h39.57l87.42,156.9L966.43,0h36.34L896,195.09Z"/><path d="M1086.51,195.09,1199.24,0h33.59l115.49,195.09h-40L1283,149.54H1148.17l-24.85,45.55Zm77.31-73.62h103.53l-52-92.95Z"/><path d="M1667.83,29h-136.2V165.65h136.2V119.17l36.81,6.9v23q0,26.69-10.12,36.35t-37.73,9.66H1542.22q-28.07,0-37.73-9.43t-9.66-36.58V46.47q0-27.15,9.89-36.81T1542.22,0h114.57q27.6,0,37.73,9.66t10.12,36.81v18.4l-36.81,6Z"/><path d="M1851.14,195.09,1963.87,0h33.59L2113,195.09h-40l-25.31-45.55H1912.8L1888,195.09Zm77.31-73.62H2032l-52-92.95Z"/><path d="M2288.9,36.35l.93,27.15v131.6h-30.37V0h30.37l97.08,126.53L2476.17,0h34V195.09h-34V63.5a153.78,153.78,0,0,1,2.3-27.15Q2472,54.76,2465.58,63.5l-75,100.77h-9.66l-77.76-99.85Q2294.42,53.37,2288.9,36.35Z"/><path class="cls-3" d="M1089.3,279.88H1100V394.56H1089.3Z"/><path class="cls-3" d="M1128.66,340.78q0-2.1-.16-5.1t-.24-6.08q-.08-3.07-.24-5.75t-.16-4.13h9.72q.16,4.22.24,8.1a25.19,25.19,0,0,0,.4,5h.49a26.24,26.24,0,0,1,9.72-10.61,28.32,28.32,0,0,1,15.88-4.46,25.39,25.39,0,0,1,13.61,3.81q6.15,3.81,8.91,12.39a24.25,24.25,0,0,1,10.61-12.31,30.25,30.25,0,0,1,14.82-3.89q8.75,0,14.25,2.75a23,23,0,0,1,8.67,7.21,27.12,27.12,0,0,1,4.37,10.29,58.59,58.59,0,0,1,1.21,12v44.55H1231V350.5a47.62,47.62,0,0,0-.81-8.83,23.47,23.47,0,0,0-2.83-7.69,14.85,14.85,0,0,0-5.67-5.43,19.45,19.45,0,0,0-9.48-2,22.26,22.26,0,0,0-11.18,2.51,19.68,19.68,0,0,0-6.88,6.4,26.38,26.38,0,0,0-3.56,8.42,37.9,37.9,0,0,0-1.05,8.58v42.12h-9.72v-45q0-10.37-3.81-16.69t-11.74-6.32a27.65,27.65,0,0,0-10.12,1.86,21.83,21.83,0,0,0-8.26,5.67,27.46,27.46,0,0,0-5.51,9.56,40.73,40.73,0,0,0-2,13.53v37.42h-9.72Z"/><path class="cls-3" d="M1324.82,363.14q0,5.51.08,9.88t.24,8.1q.16,3.73.4,7t.73,6.48h-9.07a70,70,0,0,1-1-12.15h-.32a27.31,27.31,0,0,1-10.45,10.69q-6.24,3.4-15.79,3.4a38,38,0,0,1-9.56-1.21,25,25,0,0,1-8.42-3.89,20,20,0,0,1-8.42-17.09q0-8.58,4.37-13.61a27.26,27.26,0,0,1,10.77-7.53,51.16,51.16,0,0,1,13.61-3.24q7.21-.73,12.72-.73h11.34v-4.54q0-9.72-6-13.93T1295,326.53a34.17,34.17,0,0,0-22.84,8.42l-5.67-6.64a34.61,34.61,0,0,1,13.28-7.86,47.62,47.62,0,0,1,15.23-2.67q13.61,0,21.71,6.4t8.1,20.65ZM1305.38,357a85.39,85.39,0,0,0-11.91.81,41.74,41.74,0,0,0-10.37,2.75,19.29,19.29,0,0,0-7.37,5.18,12.06,12.06,0,0,0-2.75,8.1,11.93,11.93,0,0,0,1.54,6.07,13.43,13.43,0,0,0,4,4.37,18.57,18.57,0,0,0,5.43,2.59,21.14,21.14,0,0,0,6.07.89,31.19,31.19,0,0,0,12.8-2.27,21.74,21.74,0,0,0,8-5.91,20.59,20.59,0,0,0,4.13-8.26,39,39,0,0,0,1.13-9.31v-5Z"/><path class="cls-3" d="M1425.9,389.7q0,13.93-4,22.52a35.6,35.6,0,0,1-10.12,13.28,33.65,33.65,0,0,1-13,6.32,56.37,56.37,0,0,1-12.63,1.62,58.16,58.16,0,0,1-11.1-1.05,53,53,0,0,1-10.29-3.08,42.4,42.4,0,0,1-8.83-4.94,35,35,0,0,1-6.88-6.64l7.61-7.13a30.93,30.93,0,0,0,13,10.69,40.77,40.77,0,0,0,16.52,3.4,35.48,35.48,0,0,0,12.55-1.94,24.93,24.93,0,0,0,8.42-5.1,24.47,24.47,0,0,0,5.18-7,36.17,36.17,0,0,0,2.75-7.61,40.33,40.33,0,0,0,1.05-7.21q.16-3.4.16-5.51V380h-.32a29.84,29.84,0,0,1-11.42,10.69,35.14,35.14,0,0,1-16.93,3.89,40.45,40.45,0,0,1-15.55-3,39.57,39.57,0,0,1-21.3-20.49,36.73,36.73,0,0,1,0-29.8,38.77,38.77,0,0,1,8.58-12.15,41.71,41.71,0,0,1,12.72-8.26,39.58,39.58,0,0,1,15.55-3.08,35.14,35.14,0,0,1,16.93,3.89,29.84,29.84,0,0,1,11.42,10.69h.32V319.72h9.72Zm-9.39-33.53a28.89,28.89,0,0,0-2.35-11.58,29.46,29.46,0,0,0-15.71-15.71,29.74,29.74,0,0,0-23.16,0,29.46,29.46,0,0,0-15.71,15.71,29.73,29.73,0,0,0,0,23.16,29.46,29.46,0,0,0,15.71,15.71,29.74,29.74,0,0,0,23.16,0,29.46,29.46,0,0,0,15.71-15.71A28.87,28.87,0,0,0,1416.5,356.17Z"/><path class="cls-3" d="M1448.9,290.08a7.19,7.19,0,1,1,2.11,5.18A7,7,0,0,1,1448.9,290.08Zm2.43,29.64H1461v74.84h-9.72Z"/><path class="cls-3" d="M1488.58,340.78q0-2.1-.16-5.1t-.24-6.08q-.08-3.07-.24-5.75t-.16-4.13h9.72q.16,4.22.24,8.1a25.19,25.19,0,0,0,.4,5h.49a26.24,26.24,0,0,1,9.72-10.61,28.32,28.32,0,0,1,15.88-4.46q8.75,0,14.25,2.75a23,23,0,0,1,8.67,7.21,27.11,27.11,0,0,1,4.37,10.29,58.66,58.66,0,0,1,1.21,12v44.55H1543V350.5a47.62,47.62,0,0,0-.81-8.83,23.45,23.45,0,0,0-2.83-7.69,14.85,14.85,0,0,0-5.67-5.43,19.45,19.45,0,0,0-9.48-2,27.65,27.65,0,0,0-10.12,1.86,21.83,21.83,0,0,0-8.26,5.67,27.46,27.46,0,0,0-5.51,9.56,40.73,40.73,0,0,0-2,13.53v37.42h-9.72Z"/><path class="cls-3" d="M1653.8,389.7q0,13.93-4,22.52a35.6,35.6,0,0,1-10.12,13.28,33.65,33.65,0,0,1-13,6.32,56.37,56.37,0,0,1-12.63,1.62,58.16,58.16,0,0,1-11.1-1.05,53,53,0,0,1-10.29-3.08,42.4,42.4,0,0,1-8.83-4.94,35,35,0,0,1-6.88-6.64l7.61-7.13a30.93,30.93,0,0,0,13,10.69,40.77,40.77,0,0,0,16.52,3.4,35.48,35.48,0,0,0,12.55-1.94,24.93,24.93,0,0,0,8.42-5.1,24.47,24.47,0,0,0,5.18-7,36.17,36.17,0,0,0,2.75-7.61,40.33,40.33,0,0,0,1.05-7.21q.16-3.4.16-5.51V380h-.32a29.84,29.84,0,0,1-11.42,10.69,35.14,35.14,0,0,1-16.93,3.89,40.45,40.45,0,0,1-15.55-3,39.57,39.57,0,0,1-21.3-20.49,36.73,36.73,0,0,1,0-29.8,38.77,38.77,0,0,1,8.58-12.15,41.71,41.71,0,0,1,12.72-8.26,39.58,39.58,0,0,1,15.55-3.08,35.14,35.14,0,0,1,16.93,3.89,29.84,29.84,0,0,1,11.42,10.69h.32V319.72h9.72Zm-9.39-33.53a28.89,28.89,0,0,0-2.35-11.58,29.46,29.46,0,0,0-15.71-15.71,29.74,29.74,0,0,0-23.16,0,29.46,29.46,0,0,0-15.71,15.71,29.73,29.73,0,0,0,0,23.16,29.46,29.46,0,0,0,15.71,15.71,29.74,29.74,0,0,0,23.16,0,29.46,29.46,0,0,0,15.71-15.71A28.87,28.87,0,0,0,1644.41,356.17Z"/><path class="cls-3" d="M1756.34,328.47H1735v48.76q0,5,2.75,7.78a10.29,10.29,0,0,0,7.61,2.75,22.37,22.37,0,0,0,5.59-.73,35.59,35.59,0,0,0,5.43-1.86l.81,8.75a57.51,57.51,0,0,1-6.32,1.78,29,29,0,0,1-6.32.81,23.29,23.29,0,0,1-8.91-1.54,15.79,15.79,0,0,1-6-4.13,16.15,16.15,0,0,1-3.32-6.07,25.83,25.83,0,0,1-1.05-7.53V328.47H1709v-8.75h16.2V298.18H1735v21.54h21.38Z"/><path class="cls-3" d="M1773.83,272.1h9.72v60.74h.32a26.24,26.24,0,0,1,9.72-10.61,28.32,28.32,0,0,1,15.88-4.46q8.75,0,14.25,2.75a23,23,0,0,1,8.67,7.21,27.11,27.11,0,0,1,4.37,10.29,58.66,58.66,0,0,1,1.21,12v44.55h-9.72V350.5a47.62,47.62,0,0,0-.81-8.83,23.45,23.45,0,0,0-2.83-7.69,14.85,14.85,0,0,0-5.67-5.43,19.45,19.45,0,0,0-9.48-2,27.65,27.65,0,0,0-10.12,1.86,21.83,21.83,0,0,0-8.26,5.67,27.46,27.46,0,0,0-5.51,9.56,40.73,40.73,0,0,0-2,13.53v37.42h-9.72Z"/><path class="cls-3" d="M1930,380.47a32.76,32.76,0,0,1-14,12.31,44.58,44.58,0,0,1-18.39,3.73,39.91,39.91,0,0,1-15.55-2.92,35,35,0,0,1-12-8.18,35.9,35.9,0,0,1-7.69-12.47,45.58,45.58,0,0,1-2.67-16,42.75,42.75,0,0,1,2.75-15.55,37.11,37.11,0,0,1,7.78-12.39,36.53,36.53,0,0,1,11.82-8.26,37,37,0,0,1,15.07-3,36.14,36.14,0,0,1,15.15,3,33.22,33.22,0,0,1,11,7.94A33.66,33.66,0,0,1,1930,340a37.66,37.66,0,0,1,2.27,12.8v6.8H1869.4a33.24,33.24,0,0,0,1.21,7.86,27.78,27.78,0,0,0,4.46,9.31,28.21,28.21,0,0,0,8.67,7.78q5.43,3.24,14,3.24a31.27,31.27,0,0,0,14.42-3.56,26,26,0,0,0,10.69-9.72Zm-7.45-29.64a22.11,22.11,0,0,0-2-9.39,25.17,25.17,0,0,0-5.51-7.7,26.12,26.12,0,0,0-8.26-5.26,26.59,26.59,0,0,0-10.12-1.94q-7.94,0-13.2,3.24a28.91,28.91,0,0,0-8.34,7.45,29.62,29.62,0,0,0-4.37,8.18,21.62,21.62,0,0,0-1.3,5.43Z"/><path class="cls-3" d="M2080.3,350.66a72.6,72.6,0,0,1-2.11,17.66,40.46,40.46,0,0,1-7,14.9,35.37,35.37,0,0,1-13,10.37q-8,3.89-19.68,3.89t-19.68-3.89a35.35,35.35,0,0,1-13-10.37,40.37,40.37,0,0,1-7-14.9,72.46,72.46,0,0,1-2.11-17.66V279.88h10.69v68a81.72,81.72,0,0,0,1.13,13.12,39.61,39.61,0,0,0,4.45,13,27.38,27.38,0,0,0,9.4,9.88q6.07,3.89,16.12,3.89t16.12-3.89A27.4,27.4,0,0,0,2064,374a39.73,39.73,0,0,0,4.46-13,82.06,82.06,0,0,0,1.13-13.12v-68h10.69Z"/><path class="cls-3" d="M2106.87,340.78q0-2.1-.16-5.1t-.24-6.08q-.08-3.07-.24-5.75t-.16-4.13h9.72q.16,4.22.24,8.1a25.19,25.19,0,0,0,.4,5h.49a26.24,26.24,0,0,1,9.72-10.61,28.32,28.32,0,0,1,15.88-4.46q8.75,0,14.25,2.75a23,23,0,0,1,8.67,7.21A27.11,27.11,0,0,1,2169.8,338a58.66,58.66,0,0,1,1.21,12v44.55h-9.72V350.5a47.62,47.62,0,0,0-.81-8.83,23.45,23.45,0,0,0-2.83-7.69,14.85,14.85,0,0,0-5.67-5.43,19.45,19.45,0,0,0-9.48-2,27.65,27.65,0,0,0-10.12,1.86,21.83,21.83,0,0,0-8.26,5.67,27.46,27.46,0,0,0-5.51,9.56,40.73,40.73,0,0,0-2,13.53v37.42h-9.72Z"/><path class="cls-3" d="M2197.09,375.45a20.91,20.91,0,0,0,9.07,9.15,26.72,26.72,0,0,0,12.63,3.16,20.34,20.34,0,0,0,6.16-1,18.8,18.8,0,0,0,5.51-2.75,15,15,0,0,0,4-4.29A10.77,10.77,0,0,0,2236,374q0-5.18-3.32-7.78a24.69,24.69,0,0,0-8.18-4,97.83,97.83,0,0,0-10.69-2.51,45.7,45.7,0,0,1-10.69-3.24,23,23,0,0,1-8.18-6.07q-3.32-3.89-3.32-11a19.24,19.24,0,0,1,2.27-9.56,20.86,20.86,0,0,1,5.91-6.72,25.58,25.58,0,0,1,8.18-4,33.46,33.46,0,0,1,9.23-1.3,35,35,0,0,1,16,3.4,23.59,23.59,0,0,1,10.45,10.69l-8.75,5.18a20.6,20.6,0,0,0-6.88-7.86q-4.13-2.67-10.77-2.67a19.76,19.76,0,0,0-5.43.81,19.16,19.16,0,0,0-5.1,2.27,13.15,13.15,0,0,0-3.81,3.73,9,9,0,0,0-1.54,5.18q0,5,3.32,7.45a25.47,25.47,0,0,0,8.18,3.81,99.23,99.23,0,0,0,10.69,2.35,43.17,43.17,0,0,1,10.69,3.16,21.85,21.85,0,0,1,8.18,6.32q3.32,4.13,3.32,11.74a22,22,0,0,1-2.19,10.13,21,21,0,0,1-6,7.21,26.75,26.75,0,0,1-8.67,4.38,35.37,35.37,0,0,1-10.21,1.46,41.57,41.57,0,0,1-17.74-3.73,26.91,26.91,0,0,1-12.39-11.5Z"/><path class="cls-3" d="M2332,380.47a32.76,32.76,0,0,1-14,12.31,44.58,44.58,0,0,1-18.39,3.73,39.91,39.91,0,0,1-15.55-2.92,35,35,0,0,1-12-8.18,35.9,35.9,0,0,1-7.69-12.47,45.58,45.58,0,0,1-2.67-16,42.75,42.75,0,0,1,2.75-15.55,37.11,37.11,0,0,1,7.78-12.39,36.53,36.53,0,0,1,11.82-8.26,37,37,0,0,1,15.07-3,36.14,36.14,0,0,1,15.15,3,33.22,33.22,0,0,1,11,7.94A33.66,33.66,0,0,1,2332,340a37.66,37.66,0,0,1,2.27,12.8v6.8h-62.85a33.24,33.24,0,0,0,1.21,7.86,27.78,27.78,0,0,0,4.46,9.31,28.21,28.21,0,0,0,8.67,7.78q5.43,3.24,14,3.24a31.27,31.27,0,0,0,14.42-3.56,26,26,0,0,0,10.69-9.72Zm-7.45-29.64a22.11,22.11,0,0,0-2-9.39,25.17,25.17,0,0,0-5.51-7.7,26.12,26.12,0,0,0-8.26-5.26,26.59,26.59,0,0,0-10.12-1.94q-7.94,0-13.2,3.24a28.91,28.91,0,0,0-8.34,7.45,29.62,29.62,0,0,0-4.37,8.18,21.62,21.62,0,0,0-1.3,5.43Z"/><path class="cls-3" d="M2422.09,380.47a32.76,32.76,0,0,1-14,12.31,44.58,44.58,0,0,1-18.39,3.73,39.91,39.91,0,0,1-15.55-2.92,35,35,0,0,1-12-8.18,35.9,35.9,0,0,1-7.69-12.47,45.58,45.58,0,0,1-2.67-16,42.75,42.75,0,0,1,2.75-15.55,37.11,37.11,0,0,1,7.78-12.39,36.53,36.53,0,0,1,11.82-8.26,37,37,0,0,1,15.07-3,36.14,36.14,0,0,1,15.15,3,33.22,33.22,0,0,1,11,7.94,33.66,33.66,0,0,1,6.72,11.26,37.66,37.66,0,0,1,2.27,12.8v6.8h-62.85a33.24,33.24,0,0,0,1.21,7.86,27.78,27.78,0,0,0,4.46,9.31,28.21,28.21,0,0,0,8.67,7.78q5.43,3.24,14,3.24a31.27,31.27,0,0,0,14.42-3.56,26,26,0,0,0,10.69-9.72Zm-7.45-29.64a22.11,22.11,0,0,0-2-9.39,25.17,25.17,0,0,0-5.51-7.7,26.12,26.12,0,0,0-8.26-5.26,26.59,26.59,0,0,0-10.12-1.94q-7.94,0-13.2,3.24a28.91,28.91,0,0,0-8.34,7.45,29.62,29.62,0,0,0-4.37,8.18,21.62,21.62,0,0,0-1.3,5.43Z"/><path class="cls-3" d="M2446.06,340.78q0-2.1-.16-5.1t-.24-6.08q-.08-3.07-.24-5.75t-.16-4.13H2455q.16,4.22.24,8.1a25.19,25.19,0,0,0,.4,5h.49a26.24,26.24,0,0,1,9.72-10.61,28.32,28.32,0,0,1,15.88-4.46q8.75,0,14.25,2.75a23,23,0,0,1,8.67,7.21A27.11,27.11,0,0,1,2509,338a58.66,58.66,0,0,1,1.21,12v44.55h-9.72V350.5a47.62,47.62,0,0,0-.81-8.83,23.45,23.45,0,0,0-2.83-7.69,14.85,14.85,0,0,0-5.67-5.43,19.45,19.45,0,0,0-9.48-2,27.65,27.65,0,0,0-10.12,1.86,21.83,21.83,0,0,0-8.26,5.67,27.46,27.46,0,0,0-5.51,9.56,40.73,40.73,0,0,0-2,13.53v37.42h-9.72Z"/></svg>