<?xml version="1.0" encoding="UTF-8" standalone="no"?>
<!-- Created with Inkscape (http://www.inkscape.org/) -->

<svg
   width="152.0007mm"
   height="49.797485mm"
   viewBox="0 0 152.0007 49.797485"
   version="1.1"
   id="svg1"
   xml:space="preserve"
   xmlns="http://www.w3.org/2000/svg"
   xmlns:svg="http://www.w3.org/2000/svg"><defs
     id="defs1"><clipPath
       clipPathUnits="userSpaceOnUse"
       id="clipPath517"><path
         d="m 32.669,316.129 h 595.28 V 32.669 H 32.669 Z"
         transform="translate(-277.97678,-172.9467)"
         id="path517" /></clipPath><clipPath
       clipPathUnits="userSpaceOnUse"
       id="clipPath519"><path
         d="m 32.669,316.129 h 595.28 V 32.669 H 32.669 Z"
         transform="translate(-404.02269,-222.91881)"
         id="path519" /></clipPath><clipPath
       clipPathUnits="userSpaceOnUse"
       id="clipPath521"><path
         d="m 32.669,316.129 h 595.28 V 32.669 H 32.669 Z"
         transform="translate(-417.39969,-232.76061)"
         id="path521" /></clipPath><clipPath
       clipPathUnits="userSpaceOnUse"
       id="clipPath523"><path
         d="m 32.669,316.129 h 595.28 V 32.669 H 32.669 Z"
         transform="translate(-442.56279,-226.71231)"
         id="path523" /></clipPath><clipPath
       clipPathUnits="userSpaceOnUse"
       id="clipPath525"><path
         d="m 32.669,316.129 h 595.28 V 32.669 H 32.669 Z"
         transform="translate(-454.49251,-227.81921)"
         id="path525" /></clipPath><clipPath
       clipPathUnits="userSpaceOnUse"
       id="clipPath527"><path
         d="m 32.669,316.129 h 595.28 V 32.669 H 32.669 Z"
         transform="translate(-500.74929,-223.7553)"
         id="path527" /></clipPath><clipPath
       clipPathUnits="userSpaceOnUse"
       id="clipPath529"><path
         d="m 32.669,316.129 h 595.28 V 32.669 H 32.669 Z"
         transform="translate(-474.24834,-241.0194)"
         id="path529" /></clipPath><clipPath
       clipPathUnits="userSpaceOnUse"
       id="clipPath531"><path
         d="m 32.669,316.129 h 595.28 V 32.669 H 32.669 Z"
         transform="translate(-494.27371,-228.6459)"
         id="path531" /></clipPath><clipPath
       clipPathUnits="userSpaceOnUse"
       id="clipPath533"><path
         d="m 32.669,316.129 h 595.28 V 32.669 H 32.669 Z"
         transform="translate(-528.65064,-222.78021)"
         id="path533" /></clipPath><clipPath
       clipPathUnits="userSpaceOnUse"
       id="clipPath535"><path
         d="m 32.669,316.129 h 595.28 V 32.669 H 32.669 Z"
         transform="translate(-530.83809,-247.45501)"
         id="path535" /></clipPath></defs><g
     id="layer1"
     transform="translate(121.47658,162.55434)"><g
       id="g3"><path
         id="path511"
         d="m -121.47658,-162.55432 h 15.63123 v 4.10563 h -11.11532 v 4.3695 h 9.79523 v 4.10669 h -9.79523 v 7.94738 h -4.51591 z"
         style="fill:#ffffff;fill-opacity:1;fill-rule:nonzero;stroke:none;stroke-width:0.352778" /><path
         id="path512"
         d="m -121.47658,-133.28579 h 4.51591 v 16.42251 h 10.23549 v 4.10528 h -14.7514 z"
         style="fill:#ffffff;fill-opacity:1;fill-rule:nonzero;stroke:none;stroke-width:0.352778" /><path
         id="path513"
         d="m -37.062119,-112.75684 h -14.750696 v -4.10563 h 10.235141 v -16.42357 h 4.515555 z"
         style="fill:#ffffff;fill-opacity:1;fill-rule:nonzero;stroke:none;stroke-width:0.352778" /><path
         id="path514"
         d="m -37.062119,-142.0248 h -4.515555 v -16.42357 h -10.235141 v -4.10563 h 14.750696 z"
         style="fill:#ffffff;fill-opacity:1;fill-rule:nonzero;stroke:none;stroke-width:0.352778" /><path
         id="path515"
         d="m -90.587195,-136.38569 -2.727325,-6.65868 -2.72803,6.65868 z m -4.750858,-12.08405 h 4.164541 l 8.797925,20.67701 h -4.721225 l -1.87713,-4.60445 h -8.681155 l -1.876778,4.60445 h -4.604455 z"
         style="fill:#ffffff;fill-opacity:1;fill-rule:nonzero;stroke:none;stroke-width:0.352778" /><path
         id="path516"
         d="M 0,0 H -14.797 V -12.801 H 0.416 c 5.653,0 9.062,1.993 9.062,6.316 V -6.32 C 9.478,-2.411 6.568,0 0,0 m 6.236,16.958 c 0,3.826 -2.993,5.985 -8.396,5.985 H -14.797 V 10.641 h 11.805 c 5.652,0 9.228,1.829 9.228,6.152 z m -33.503,17.209 h 27.018 c 6.65,0 11.889,-1.829 15.214,-5.153 2.66,-2.66 3.99,-5.903 3.99,-9.893 v -0.169 c 0,-6.566 -3.492,-10.223 -7.647,-12.55 6.733,-2.58 10.89,-6.486 10.89,-14.3 v -0.168 c 0,-10.642 -8.646,-15.962 -21.782,-15.962 h -27.683 z"
         style="fill:#ffffff;fill-opacity:1;fill-rule:nonzero;stroke:none"
         transform="matrix(0.35277776,0,0,-0.35277776,-63.885313,-136.26927)"
         clip-path="url(#clipPath517)" /><path
         id="path518"
         d="m 0,0 v 6.562 5.454 6.306 5.751 H -6.392 V -5.751 H 0 Z"
         style="fill:#ffffff;fill-opacity:1;fill-rule:nonzero;stroke:none"
         transform="matrix(0.35277776,0,0,-0.35277776,-19.419121,-153.89832)"
         clip-path="url(#clipPath519)" /><path
         id="path520"
         d="m 0,0 c 2.131,1.194 3.921,3.068 3.921,6.434 v 0.085 c 0,2.045 -0.682,3.707 -2.046,5.071 -1.704,1.704 -4.389,2.641 -7.797,2.641 h -5.267 V 8.48 h 4.287 c 2.771,0 4.304,-1.109 4.304,-3.068 V 5.327 c 0,-2.216 -1.833,-3.153 -4.73,-3.153 h -3.861 v -5.453 h 5.396 c 3.366,0 4.856,-1.236 4.856,-3.24 v -0.084 c 0,-2.216 -1.746,-3.239 -4.643,-3.239 h -5.609 v -5.751 h 5.609 c 6.731,0 11.162,2.727 11.162,8.18 v 0.085 C 5.582,-3.323 3.452,-1.32 0,0"
         style="fill:#ffffff;fill-opacity:1;fill-rule:nonzero;stroke:none"
         transform="matrix(0.35277776,0,0,-0.35277776,-14.700012,-157.37028)"
         clip-path="url(#clipPath521)" /><path
         id="path522"
         d="m 0,0 v 5.793 8.564 5.922 H -6.562 V -9.545 H 0 Z"
         style="fill:#ffffff;fill-opacity:1;fill-rule:nonzero;stroke:none"
         transform="matrix(0.35277776,0,0,-0.35277776,-5.82303,-155.23658)"
         clip-path="url(#clipPath523)" /><path
         id="path524"
         d="M 0,0 C 3.792,1.405 6.392,4.431 6.392,9.246 V 9.33 c 0,2.813 -0.896,5.156 -2.556,6.818 -1.961,1.959 -4.901,3.024 -8.692,3.024 H -9.743 V 13.25 h 4.332 c 3.196,0 5.156,-1.448 5.156,-4.26 V 8.904 c 0,-2.513 -1.833,-4.217 -5.028,-4.217 h -4.46 v -5.794 h 2.969 l 6.39,-9.545 h 7.67 z"
         style="fill:#ffffff;fill-opacity:1;fill-rule:nonzero;stroke:none"
         transform="matrix(0.35277776,0,0,-0.35277776,-1.6144881,-155.62707)"
         clip-path="url(#clipPath525)" /><path
         id="path526"
         d="M 0,0 V 23.236 H -6.476 V 8.5 Z"
         style="fill:#ffffff;fill-opacity:1;fill-rule:nonzero;stroke:none"
         transform="matrix(0.35277776,0,0,-0.35277776,14.703874,-154.19341)"
         clip-path="url(#clipPath527)" /><path
         id="path528"
         d="M 0,0 V -23.852 H 6.477 V -8.501 Z"
         style="fill:#ffffff;fill-opacity:1;fill-rule:nonzero;stroke:none"
         transform="matrix(0.35277776,0,0,-0.35277776,5.3549278,-160.2838)"
         clip-path="url(#clipPath529)" /><path
         id="path530"
         d="m 0,0 v -0.017 l -13.961,18.344 -0.014,0.019 h -6.05 V 15.983 L -10.092,2.944 0.895,-11.479 H 6.476 V -8.5 Z"
         style="fill:#ffffff;fill-opacity:1;fill-rule:nonzero;stroke:none"
         transform="matrix(0.35277776,0,0,-0.35277776,12.419435,-155.91871)"
         clip-path="url(#clipPath531)" /><path
         id="path532"
         d="m 0,0 c -4.676,0.563 -7.897,4.563 -7.897,9.299 v 0.087 c 0,4.765 3.186,8.713 7.897,9.227 V 24.67 C -8.608,24.122 -14.756,17.424 -14.756,9.299 V 9.215 c 0,-8.151 6.11,-14.786 14.756,-15.289 z"
         style="fill:#ffffff;fill-opacity:1;fill-rule:nonzero;stroke:none"
         transform="matrix(0.35277776,0,0,-0.35277776,24.54685,-153.84942)"
         clip-path="url(#clipPath533)" /><path
         id="path534"
         d="m 0,0 v -6.076 c 4.675,-0.564 7.896,-4.563 7.896,-9.299 v -0.085 c 0,-4.767 -3.186,-8.715 -7.896,-9.229 v -6.055 c 8.608,0.548 14.756,7.246 14.756,15.369 v 0.086 C 14.756,-7.14 8.646,-0.504 0,0"
         style="fill:#ffffff;fill-opacity:1;fill-rule:nonzero;stroke:none"
         transform="matrix(0.35277776,0,0,-0.35277776,25.318534,-162.55414)"
         clip-path="url(#clipPath535)" /></g><path
       id="path536"
       d="m -152.42437,-186.78091 h -9.525 m 223.526692,0 h 9.525 m -223.526692,99.998384 h -9.525 m 223.526692,0 h 9.525 M -150.42447,-188.78081 v -9.525 m 0,113.523181 v 9.524999 M 59.577072,-188.78081 v -9.525 m 0,113.523181 v 9.524999"
       style="fill:none;stroke:#ffffff;stroke-width:0.440972;stroke-linecap:butt;stroke-linejoin:miter;stroke-miterlimit:10;stroke-dasharray:none;stroke-opacity:1" /><path
       id="path537"
       d="m -152.42437,-186.78091 h -9.525 m 223.526692,0 h 9.525 m -223.526692,99.998384 h -9.525 m 223.526692,0 h 9.525 M -150.42447,-188.78081 v -9.525 m 0,113.523181 v 9.524999 M 59.577072,-188.78081 v -9.525 m 0,113.523181 v 9.524999"
       style="fill:none;stroke:#000000;stroke-width:0.0881944;stroke-linecap:butt;stroke-linejoin:miter;stroke-miterlimit:10;stroke-dasharray:none;stroke-opacity:1" /></g></svg>
