<?xml version="1.0" encoding="UTF-8" standalone="no"?>
<!-- Created with Inkscape (http://www.inkscape.org/) -->

<svg
   width="84.414642mm"
   height="71.257935mm"
   viewBox="0 0 84.414642 71.257935"
   version="1.1"
   id="svg1"
   xml:space="preserve"
   xmlns="http://www.w3.org/2000/svg"
   xmlns:svg="http://www.w3.org/2000/svg"><defs
     id="defs1"><clipPath
       clipPathUnits="userSpaceOnUse"
       id="clipPath1027"><path
         d="m 32.669,372.692 h 403.65 V 32.669 H 32.669 Z"
         transform="translate(-281.91198,-228.96541)"
         id="path1027" /></clipPath><clipPath
       clipPathUnits="userSpaceOnUse"
       id="clipPath1029"><path
         d="m 32.669,372.692 h 403.65 V 32.669 H 32.669 Z"
         transform="translate(-171.37143,-107.6959)"
         id="path1029" /></clipPath><clipPath
       clipPathUnits="userSpaceOnUse"
       id="clipPath1031"><path
         d="m 32.669,372.692 h 403.65 V 32.669 H 32.669 Z"
         transform="translate(-184.74843,-117.53871)"
         id="path1031" /></clipPath><clipPath
       clipPathUnits="userSpaceOnUse"
       id="clipPath1033"><path
         d="m 32.669,372.692 h 403.65 V 32.669 H 32.669 Z"
         transform="translate(-209.91048,-111.48981)"
         id="path1033" /></clipPath><clipPath
       clipPathUnits="userSpaceOnUse"
       id="clipPath1035"><path
         d="m 32.669,372.692 h 403.65 V 32.669 H 32.669 Z"
         transform="translate(-221.84073,-112.5973)"
         id="path1035" /></clipPath><clipPath
       clipPathUnits="userSpaceOnUse"
       id="clipPath1037"><path
         d="m 32.669,372.692 h 403.65 V 32.669 H 32.669 Z"
         transform="translate(-268.09698,-108.5328)"
         id="path1037" /></clipPath><clipPath
       clipPathUnits="userSpaceOnUse"
       id="clipPath1039"><path
         d="m 32.669,372.692 h 403.65 V 32.669 H 32.669 Z"
         transform="translate(-241.59648,-125.7975)"
         id="path1039" /></clipPath><clipPath
       clipPathUnits="userSpaceOnUse"
       id="clipPath1041"><path
         d="m 32.669,372.692 h 403.65 V 32.669 H 32.669 Z"
         transform="translate(-261.62238,-113.4234)"
         id="path1041" /></clipPath><clipPath
       clipPathUnits="userSpaceOnUse"
       id="clipPath1043"><path
         d="m 32.669,372.692 h 403.65 V 32.669 H 32.669 Z"
         transform="translate(-295.99938,-107.5572)"
         id="path1043" /></clipPath><clipPath
       clipPathUnits="userSpaceOnUse"
       id="clipPath1045"><path
         d="m 32.669,372.692 h 403.65 V 32.669 H 32.669 Z"
         transform="translate(-298.18638,-132.232)"
         id="path1045" /></clipPath></defs><g
     id="layer1"
     transform="translate(-310.49785,162.3623)"><g
       id="g6"><path
         id="path1021"
         d="m 310.49788,-162.3623 h 15.63123 v 4.10598 h -11.11532 v 4.3688 h 9.79558 v 4.10704 h -9.79558 v 7.94738 h -4.51591 z"
         style="fill:#ed1639;fill-opacity:1;fill-rule:nonzero;stroke:none;stroke-width:0.352778" /><path
         id="path1022"
         d="m 310.49788,-133.09381 h 4.51591 v 16.42251 h 10.23549 v 4.10563 h -14.7514 z"
         style="fill:#ed1639;fill-opacity:1;fill-rule:nonzero;stroke:none;stroke-width:0.352778" /><path
         id="path1023"
         d="m 394.91253,-112.56483 h -14.75105 v -4.10563 h 10.23549 v -16.42357 h 4.51556 z"
         style="fill:#ed1639;fill-opacity:1;fill-rule:nonzero;stroke:none;stroke-width:0.352778" /><path
         id="path1024"
         d="m 394.91253,-141.833 h -4.51556 v -16.42357 h -10.23549 v -4.10527 h 14.75105 z"
         style="fill:#ed1639;fill-opacity:1;fill-rule:nonzero;stroke:none;stroke-width:0.352778" /><path
         id="path1025"
         d="m 341.38729,-136.1937 -2.72732,-6.65868 -2.72768,6.65868 z m -4.75051,-12.08405 h 4.16419 l 8.79828,20.67701 h -4.72158 l -1.87713,-4.6041 h -8.68115 l -1.87678,4.6041 h -4.60446 z"
         style="fill:#ed1639;fill-opacity:1;fill-rule:nonzero;stroke:none;stroke-width:0.352778" /><path
         id="path1026"
         d="M 0,0 H -14.796 V -12.802 H 0.416 c 5.654,0 9.062,1.994 9.062,6.317 V -6.32 C 9.478,-2.411 6.568,0 0,0 m 6.236,16.959 c 0,3.825 -2.993,5.983 -8.396,5.983 h -12.636 v -12.3 h 11.804 c 5.652,0 9.228,1.828 9.228,6.152 z m -33.502,17.207 h 27.017 c 6.65,0 11.889,-1.828 15.214,-5.152 2.66,-2.66 3.991,-5.903 3.991,-9.894 v -0.168 c 0,-6.566 -3.493,-10.223 -7.648,-12.551 6.733,-2.579 10.89,-6.485 10.89,-14.299 v -0.168 c 0,-10.642 -8.646,-15.962 -21.782,-15.962 h -27.682 z"
         style="fill:#ed1639;fill-opacity:1;fill-rule:nonzero;stroke:none"
         transform="matrix(0.35277776,0,0,-0.35277776,368.0892,-136.07725)"
         clip-path="url(#clipPath1027)" /><path
         id="path1028"
         d="m 0,0 v 6.562 5.455 6.305 5.751 H -6.392 V -5.751 H 0 Z"
         style="fill:#231f20;fill-opacity:1;fill-rule:nonzero;stroke:none"
         transform="matrix(0.35277776,0,0,-0.35277776,329.09295,-93.296068)"
         clip-path="url(#clipPath1029)" /><path
         id="path1030"
         d="m 0,0 c 2.13,1.193 3.92,3.067 3.92,6.434 v 0.085 c 0,2.044 -0.681,3.707 -2.045,5.071 -1.704,1.704 -4.389,2.64 -7.797,2.64 H -11.19 V 8.479 h 4.288 c 2.77,0 4.303,-1.109 4.303,-3.068 V 5.326 c 0,-2.216 -1.832,-3.152 -4.73,-3.152 H -11.19 V -3.28 h 5.397 c 3.365,0 4.856,-1.236 4.856,-3.239 v -0.085 c 0,-2.216 -1.746,-3.239 -4.644,-3.239 h -5.609 v -5.751 h 5.609 c 6.732,0 11.163,2.727 11.163,8.181 v 0.084 C 5.582,-3.324 3.452,-1.32 0,0"
         style="fill:#231f20;fill-opacity:1;fill-rule:nonzero;stroke:none"
         transform="matrix(0.35277776,0,0,-0.35277776,333.81206,-96.768391)"
         clip-path="url(#clipPath1031)" /><path
         id="path1032"
         d="m 0,0 v 5.793 8.564 5.922 H -6.561 V -9.545 H 0 Z"
         style="fill:#231f20;fill-opacity:1;fill-rule:nonzero;stroke:none"
         transform="matrix(0.35277776,0,0,-0.35277776,342.68867,-94.634473)"
         clip-path="url(#clipPath1033)" /><path
         id="path1034"
         d="m 0,0 c 3.792,1.404 6.392,4.431 6.392,9.245 v 0.084 c 0,2.814 -0.896,5.156 -2.556,6.818 -1.961,1.959 -4.901,3.025 -8.693,3.025 H -9.743 V 13.25 h 4.332 c 3.196,0 5.156,-1.449 5.156,-4.26 V 8.903 c 0,-2.513 -1.833,-4.217 -5.028,-4.217 h -4.46 v -5.793 h 2.969 l 6.39,-9.545 h 7.67 z"
         style="fill:#231f20;fill-opacity:1;fill-rule:nonzero;stroke:none"
         transform="matrix(0.35277776,0,0,-0.35277776,346.8974,-95.025173)"
         clip-path="url(#clipPath1035)" /><path
         id="path1036"
         d="M 0,0 V 23.236 H -6.475 V 8.499 Z"
         style="fill:#231f20;fill-opacity:1;fill-rule:nonzero;stroke:none"
         transform="matrix(0.35277776,0,0,-0.35277776,363.21558,-93.591309)"
         clip-path="url(#clipPath1037)" /><path
         id="path1038"
         d="M 0,0 V -23.853 H 6.477 V -8.502 Z"
         style="fill:#231f20;fill-opacity:1;fill-rule:nonzero;stroke:none"
         transform="matrix(0.35277776,0,0,-0.35277776,353.86679,-99.681911)"
         clip-path="url(#clipPath1039)" /><path
         id="path1040"
         d="m 0,0 v -0.017 l -13.961,18.344 -0.015,0.019 h -6.05 V 15.982 L -10.093,2.943 0.895,-11.479 h 5.58 V -8.5 Z"
         style="fill:#231f20;fill-opacity:1;fill-rule:nonzero;stroke:none"
         transform="matrix(0.35277776,0,0,-0.35277776,360.93148,-95.316604)"
         clip-path="url(#clipPath1041)" /><path
         id="path1042"
         d="m 0,0 c -4.676,0.563 -7.897,4.563 -7.897,9.3 v 0.086 c 0,4.765 3.186,8.714 7.897,9.227 V 24.67 C -8.609,24.122 -14.756,17.424 -14.756,9.3 V 9.215 C -14.756,1.064 -8.647,-5.57 0,-6.074 Z"
         style="fill:#231f20;fill-opacity:1;fill-rule:nonzero;stroke:none"
         transform="matrix(0.35277776,0,0,-0.35277776,373.05892,-93.247139)"
         clip-path="url(#clipPath1043)" /><path
         id="path1044"
         d="m 0,0 v -6.075 c 4.675,-0.565 7.896,-4.564 7.896,-9.3 v -0.085 c 0,-4.767 -3.186,-8.715 -7.896,-9.228 v -6.056 c 8.609,0.549 14.756,7.246 14.756,15.369 v 0.086 C 14.756,-7.14 8.646,-0.503 0,0"
         style="fill:#231f20;fill-opacity:1;fill-rule:nonzero;stroke:none"
         transform="matrix(0.35277776,0,0,-0.35277776,373.83045,-101.95186)"
         clip-path="url(#clipPath1045)" /></g><path
       id="path1046"
       d="m 278.16193,-186.78091 h -9.525 m 155.92389,0 h 9.525 M 278.16193,-66.828358 h -9.525 m 155.92389,0 h 9.525 M 280.16183,-188.78081 v -9.525 m 0,133.477349 v 9.525 M 422.56092,-188.78081 v -9.525 m 0,133.477349 v 9.525"
       style="fill:none;stroke:#ffffff;stroke-width:0.440972;stroke-linecap:butt;stroke-linejoin:miter;stroke-miterlimit:10;stroke-dasharray:none;stroke-opacity:1" /><path
       id="path1047"
       d="m 278.16193,-186.78091 h -9.525 m 155.92389,0 h 9.525 M 278.16193,-66.828358 h -9.525 m 155.92389,0 h 9.525 M 280.16183,-188.78081 v -9.525 m 0,133.477349 v 9.525 M 422.56092,-188.78081 v -9.525 m 0,133.477349 v 9.525"
       style="fill:none;stroke:#000000;stroke-width:0.0881944;stroke-linecap:butt;stroke-linejoin:miter;stroke-miterlimit:10;stroke-dasharray:none;stroke-opacity:1" /></g></svg>
