<svg xmlns="http://www.w3.org/2000/svg" viewBox="0 0 411.72 78.06">
    <defs>
        <style>.cls-1{fill:#ff8d35;}.cls-2{fill:#ffffff;}</style>
    </defs>
    <title>malcomcz</title>
    <g id="Vrstva_2" data-name="Vrstva 2">
        <g id="Vrstva_1-2" data-name="Vrstva 1">
            <path class="cls-1"
                  d="M35.42,39,31.26,43.2,17.72,29.66a2.45,2.45,0,1,0-3.47,3.47L27.78,46.67l-4.16,4.16L10.08,37.3a2.43,2.43,0,0,0-3.47,0,2.45,2.45,0,0,0,0,3.47L20.15,54.3,16,58.47,2.45,44.93a8.33,8.33,0,0,1,0-11.8,8,8,0,0,1,5.22-2.42,8,8,0,0,1,2.41-5.21A8,8,0,0,1,16,23.05a8,8,0,0,1,5.9,2.45Z"/>
            <path class="cls-2"
                  d="M39,42.65l4.17,4.16L29.66,60.35a2.46,2.46,0,0,0,1.74,4.19,2.4,2.4,0,0,0,1.74-.72L46.67,50.28l4.17,4.17L37.3,68a2.33,2.33,0,0,0-.72,1.73,2.45,2.45,0,0,0,4.19,1.74L54.31,57.92l4.16,4.16L44.94,75.62a8.35,8.35,0,0,1-11.8,0,8,8,0,0,1-2.42-5.22A8.34,8.34,0,0,1,25.5,56.18Z"/>
            <path class="cls-1"
                  d="M42.65,39l4.16-4.16L60.35,48.4a2.46,2.46,0,0,0,4.19-1.73,2.37,2.37,0,0,0-.72-1.74L50.28,31.4l4.17-4.17L68,40.77a2.45,2.45,0,1,0,3.47-3.47L57.92,23.76l4.17-4.17L75.62,33.13a8.33,8.33,0,0,1,0,11.8,8,8,0,0,1-5.22,2.42A8,8,0,0,1,68,52.57a8.37,8.37,0,0,1-11.81,0Z"/>
            <path class="cls-2"
                  d="M39,35.42l-4.16-4.17L48.41,17.72a2.46,2.46,0,0,0-1.74-4.2,2.35,2.35,0,0,0-1.73.72L31.4,27.78l-4.17-4.16L40.77,10.08a2.45,2.45,0,0,0,0-3.47,2.45,2.45,0,0,0-3.47,0L23.76,20.15,19.6,16,33.14,2.44a8.35,8.35,0,0,1,11.8,0,8,8,0,0,1,2.41,5.23,8,8,0,0,1,5.22,2.41A8,8,0,0,1,55,16a8,8,0,0,1-2.44,5.9Z"/>
            <path class="cls-1"
                  d="M142,57.31H131.74V23.9a4.29,4.29,0,1,0-8.57,0V57.31H112.9V23.9a4.29,4.29,0,1,0-8.57,0V57.31H94.05V23.9a14,14,0,0,1,4.27-10.29,14.53,14.53,0,0,1,19.71-.8,14.54,14.54,0,0,1,19.72.8A14,14,0,0,1,142,23.9Z"/>
            <path class="cls-1"
                  d="M182.65,23.9a4.27,4.27,0,0,0-4.28-4.28H159.53a4.27,4.27,0,0,0-4.28,4.28v9.43h27.4ZM178.37,9.34a14.07,14.07,0,0,1,10.3,4.27,14,14,0,0,1,4.26,10.29V57.31H182.65V43.6h-27.4V57.31H145V23.9a14,14,0,0,1,4.26-10.29,14.07,14.07,0,0,1,10.3-4.27Z"/>
            <polygon class="cls-1"
                     points="195.88 57.31 195.88 9.34 206.16 9.34 206.16 47.03 224.89 47.03 224.89 57.31 195.88 57.31"/>
            <path class="cls-2"
                  d="M261.25,9.34a14,14,0,0,1,10.29,4.27A14,14,0,0,1,275.8,23.9v.86H265.53V23.9a4.28,4.28,0,0,0-4.28-4.28H242.4a4.27,4.27,0,0,0-4.28,4.28V42.75A4.27,4.27,0,0,0,242.4,47h18.85a4.28,4.28,0,0,0,4.28-4.28v-.86H275.8v.86a14.56,14.56,0,0,1-14.55,14.56H242.4a14.58,14.58,0,0,1-14.56-14.56V23.9a14,14,0,0,1,4.27-10.29A14,14,0,0,1,242.4,9.34Z"/>
            <path class="cls-2"
                  d="M289,42.75A4.28,4.28,0,0,0,293.32,47h18.84a4.27,4.27,0,0,0,4.28-4.28V23.9a4.27,4.27,0,0,0-4.28-4.28H293.32A4.28,4.28,0,0,0,289,23.9Zm4.29,14.56a14.56,14.56,0,0,1-14.56-14.56V23.9A14,14,0,0,1,283,13.61a14.07,14.07,0,0,1,10.3-4.27h18.84a14.07,14.07,0,0,1,10.3,4.27,14,14,0,0,1,4.26,10.29V42.75a14.56,14.56,0,0,1-14.56,14.56Z"/>
            <path class="cls-2"
                  d="M377.64,57.31H367.36V23.9a4.29,4.29,0,0,0-8.57,0V57.31H348.52V23.9a4.29,4.29,0,1,0-8.57,0V57.31H329.67V23.9a14,14,0,0,1,4.27-10.29,14.53,14.53,0,0,1,19.71-.8,14.54,14.54,0,0,1,19.72.8,14,14,0,0,1,4.27,10.29Z"/>
            <polygon class="cls-2"
                     points="94.98 68.04 98.2 64.96 99.65 64.96 96.25 68.08 100.01 71.79 98.52 71.79 94.98 68.2 94.98 71.79 94.02 71.79 94.02 60.76 94.98 60.76 94.98 68.04"/>
            <path class="cls-2"
                  d="M106.9,68.37a3.06,3.06,0,0,0-.18-1.06,2.75,2.75,0,0,0-.52-.86,2.46,2.46,0,0,0-.81-.58,2.86,2.86,0,0,0-2.15,0,2.32,2.32,0,0,0-.8.58,2.55,2.55,0,0,0-.51.86,3.06,3.06,0,0,0-.18,1.06,3.12,3.12,0,0,0,.18,1.07,2.55,2.55,0,0,0,.51.86,2.29,2.29,0,0,0,.8.57,2.74,2.74,0,0,0,2.15,0,2.43,2.43,0,0,0,.81-.57,2.75,2.75,0,0,0,.52-.86,3.12,3.12,0,0,0,.18-1.07m1,0a3.68,3.68,0,0,1-.27,1.43,3.43,3.43,0,0,1-.75,1.14,3.47,3.47,0,0,1-1.15.75,4.08,4.08,0,0,1-2.92,0A3.38,3.38,0,0,1,101,69.8a3.68,3.68,0,0,1-.27-1.43,3.75,3.75,0,0,1,.27-1.43,3.49,3.49,0,0,1,.75-1.13,3.45,3.45,0,0,1,1.14-.76,4.08,4.08,0,0,1,2.92,0,3.43,3.43,0,0,1,1.9,1.89,3.75,3.75,0,0,1,.27,1.43"/>
            <path class="cls-2"
                  d="M109.7,66.48c0-.26,0-.51,0-.76s0-.51-.05-.76h1v1h0a2.3,2.3,0,0,1,1-.91,2.87,2.87,0,0,1,1.23-.31,3,3,0,0,1,.59.06,2,2,0,0,1,1.16.64,2.5,2.5,0,0,1,.43.72,2.26,2.26,0,0,1,.92-1,2.6,2.6,0,0,1,1.32-.38,2.48,2.48,0,0,1,2,.7,2.87,2.87,0,0,1,.62,2v4.34h-1v-4a2.83,2.83,0,0,0-.37-1.59,1.49,1.49,0,0,0-1.35-.55,1.83,1.83,0,0,0-.91.21,1.76,1.76,0,0,0-.59.56,2.59,2.59,0,0,0-.33.8,4.63,4.63,0,0,0-.1.92v3.64h-1v-4a2.92,2.92,0,0,0-.36-1.59,1.52,1.52,0,0,0-1.36-.55l-.4.06a1.46,1.46,0,0,0-.65.32,2.23,2.23,0,0,0-.61.79,3.22,3.22,0,0,0-.27,1.46v3.5h-1Z"/>
            <path class="cls-2"
                  d="M127.06,71.79c0-.19,0-.37,0-.55v-.55h0a2.24,2.24,0,0,1-.41.51,2.48,2.48,0,0,1-.56.4,2.87,2.87,0,0,1-.65.27,2.57,2.57,0,0,1-.67.09,2.48,2.48,0,0,1-1.94-.69,2.84,2.84,0,0,1-.63-2V65h1v3.78a5,5,0,0,0,.09,1,1.92,1.92,0,0,0,.3.74,1.28,1.28,0,0,0,.57.45,2.13,2.13,0,0,0,.9.16l.4-.06a1.85,1.85,0,0,0,.71-.32,2.3,2.3,0,0,0,.66-.79,2.94,2.94,0,0,0,.3-1.46V65h1v5.32c0,.19,0,.42,0,.71s0,.54.05.8Z"/>
            <path class="cls-2"
                  d="M131.16,65c0,.18,0,.37,0,.55v.54h0a2.78,2.78,0,0,1,.41-.51,2.9,2.9,0,0,1,1.21-.66,2.59,2.59,0,0,1,.67-.1,2.45,2.45,0,0,1,1.94.7,2.83,2.83,0,0,1,.63,2v4.34h-1V68a3.17,3.17,0,0,0-.4-1.75,1.62,1.62,0,0,0-1.46-.6l-.4.06a1.71,1.71,0,0,0-.71.32,2.21,2.21,0,0,0-.66.79,2.93,2.93,0,0,0-.3,1.45v3.51h-1V66.46c0-.18,0-.42,0-.7s0-.55-.05-.8Z"/>
            <path class="cls-2"
                  d="M141.07,63.56h-.86l1.45-2.1H143Zm1.16,4.83-.91,0a6.06,6.06,0,0,0-1,.18,2.4,2.4,0,0,0-.86.43,1,1,0,0,0-.36.8,1.1,1.1,0,0,0,.51,1,1.41,1.41,0,0,0,.52.22,2.25,2.25,0,0,0,.58.07,2.14,2.14,0,0,0,.91-.18,1.81,1.81,0,0,0,.65-.47,2.18,2.18,0,0,0,.39-.7,3,3,0,0,0,.12-.86v-.49Zm.5-.79v-.18A1.55,1.55,0,0,0,141,65.66a3.05,3.05,0,0,0-2.09.8l-.58-.68a3.81,3.81,0,0,1,2.89-1,3,3,0,0,1,1,.15,2.1,2.1,0,0,1,.8.45,2.13,2.13,0,0,1,.54.75,2.69,2.69,0,0,1,.2,1.07v3.06a7.88,7.88,0,0,0,0,.82c0,.29.05.52.08.71h-.93a4.41,4.41,0,0,1-.07-.54,5.62,5.62,0,0,1,0-.57h0a2.6,2.6,0,0,1-1,1,3,3,0,0,1-1.41.3,3.15,3.15,0,0,1-.87-.12,2.17,2.17,0,0,1-.76-.38,2,2,0,0,1-.52-.63A1.86,1.86,0,0,1,138,70a1.89,1.89,0,0,1,.43-1.3,2.68,2.68,0,0,1,1.08-.71,5.29,5.29,0,0,1,1.39-.29q.73-.06,1.35-.06Z"/>
            <rect class="cls-2" x="146.14" y="60.76" width="0.96" height="11.03"/>
            <path class="cls-2"
                  d="M150.35,65a5.07,5.07,0,0,1,0,.55c0,.18,0,.36,0,.54h0a2.42,2.42,0,0,1,.41-.51,2.77,2.77,0,0,1,.55-.4,2.85,2.85,0,0,1,.65-.26,2.73,2.73,0,0,1,.68-.1,2.48,2.48,0,0,1,1.94.7,2.83,2.83,0,0,1,.63,2v4.34h-1V68a3.27,3.27,0,0,0-.39-1.75,1.62,1.62,0,0,0-1.46-.6l-.41.06a1.67,1.67,0,0,0-.7.32,2.22,2.22,0,0,0-.67.79,3.05,3.05,0,0,0-.29,1.45v3.51h-1V66.46c0-.18,0-.42,0-.7s0-.55-.05-.8Z"/>
            <path class="cls-2" d="M158.72,71.79h-1V65h1Zm-.51-8.23h-.86l1.46-2.1h1.33Z"/>
            <path class="cls-2"
                  d="M169,68.39l-.92,0a6.06,6.06,0,0,0-1.05.18,2.4,2.4,0,0,0-.86.43,1,1,0,0,0-.36.8,1.16,1.16,0,0,0,.14.58,1.18,1.18,0,0,0,.38.39,1.3,1.3,0,0,0,.51.22,2.3,2.3,0,0,0,.58.07,2.14,2.14,0,0,0,.91-.18,1.73,1.73,0,0,0,.65-.47,2,2,0,0,0,.39-.7,3,3,0,0,0,.12-.86v-.49Zm.49-.79v-.18a1.55,1.55,0,0,0-1.75-1.76,3.05,3.05,0,0,0-2.09.8l-.58-.68a3.83,3.83,0,0,1,2.89-1,3.11,3.11,0,0,1,1,.15,2.06,2.06,0,0,1,.79.45,2.13,2.13,0,0,1,.54.75,2.52,2.52,0,0,1,.21,1.07v3.06c0,.26,0,.53,0,.82s.05.52.08.71h-.93c0-.17-.05-.35-.07-.54s0-.39,0-.57h0a2.53,2.53,0,0,1-1,1,3,3,0,0,1-1.41.3,3.15,3.15,0,0,1-.87-.12,2.21,2.21,0,0,1-.75-.38,1.9,1.9,0,0,1-.53-.63,1.86,1.86,0,0,1-.2-.87,1.89,1.89,0,0,1,.43-1.3,2.68,2.68,0,0,1,1.08-.71,5.29,5.29,0,0,1,1.39-.29q.74-.06,1.35-.06Z"/>
            <rect class="cls-2" x="176.94" y="60.76" width="0.96" height="11.03"/>
            <path class="cls-2"
                  d="M185.54,67.85a2.22,2.22,0,0,0-.59-1.59,2.17,2.17,0,0,0-1.63-.6,2.38,2.38,0,0,0-.91.18,2.61,2.61,0,0,0-.76.49,2.4,2.4,0,0,0-.53.7,1.84,1.84,0,0,0-.2.82Zm-4.64.79a2.83,2.83,0,0,0,.24,1,2.72,2.72,0,0,0,.54.78,2.6,2.6,0,0,0,.78.52,2.44,2.44,0,0,0,.95.19,2.41,2.41,0,0,0,1.33-.36,2.68,2.68,0,0,0,.85-.82l.75.61A3.52,3.52,0,0,1,183.41,72a3.62,3.62,0,0,1-1.41-.27,3.24,3.24,0,0,1-1.12-.75,3.56,3.56,0,0,1-.74-1.14,3.92,3.92,0,0,1,0-2.86,3.59,3.59,0,0,1,.73-1.14,3.32,3.32,0,0,1,1.09-.75,3.55,3.55,0,0,1,2.74,0,3,3,0,0,1,1,.74,3.16,3.16,0,0,1,.64,1.08,4.06,4.06,0,0,1,.21,1.32v.44Z"/>
            <path class="cls-2"
                  d="M192,66.58a1.73,1.73,0,0,0-.58-.67,1.51,1.51,0,0,0-.89-.25,2.2,2.2,0,0,0-.5.06,1.58,1.58,0,0,0-.46.18,1,1,0,0,0-.33.31.89.89,0,0,0-.12.47.77.77,0,0,0,.33.7,3.34,3.34,0,0,0,1,.38l1,.23a2.36,2.36,0,0,1,1.18.65,1.69,1.69,0,0,1,.48,1.22,1.88,1.88,0,0,1-.82,1.61,2.68,2.68,0,0,1-.86.38,4.53,4.53,0,0,1-1,.11,3.57,3.57,0,0,1-1.46-.3,2.74,2.74,0,0,1-1.16-1l.83-.57a2.18,2.18,0,0,0,.74.74,2,2,0,0,0,1,.28A2.38,2.38,0,0,0,191,71a1.71,1.71,0,0,0,.52-.2,1.13,1.13,0,0,0,.36-.36A1,1,0,0,0,192,70a.8.8,0,0,0-.38-.74,3.1,3.1,0,0,0-.92-.35l-.93-.22-.48-.15a2.18,2.18,0,0,1-.58-.31,1.79,1.79,0,0,1-.49-.53,1.48,1.48,0,0,1-.2-.81,1.92,1.92,0,0,1,.21-.92,1.85,1.85,0,0,1,.57-.64,2.51,2.51,0,0,1,.81-.37,3.6,3.6,0,0,1,.93-.13,3.27,3.27,0,0,1,1.33.28,2,2,0,0,1,.95,1Z"/>
            <path class="cls-2"
                  d="M195.47,65c0,.18,0,.37,0,.55v.54h0a2.78,2.78,0,0,1,.41-.51,2.9,2.9,0,0,1,1.21-.66,2.59,2.59,0,0,1,.67-.1,2.45,2.45,0,0,1,1.94.7,2.83,2.83,0,0,1,.63,2v4.34h-1V68a3.17,3.17,0,0,0-.4-1.75,1.6,1.6,0,0,0-1.45-.6l-.41.06a1.71,1.71,0,0,0-.71.32,2.21,2.21,0,0,0-.66.79,2.93,2.93,0,0,0-.3,1.45v3.51h-1V66.46c0-.18,0-.42,0-.7s0-.55-.05-.8Z"/>
            <path class="cls-2"
                  d="M203.85,71.79h-1V65h1Zm.21-9.46a.68.68,0,0,1-.21.51.71.71,0,0,1-1,0,.69.69,0,0,1-.22-.51.67.67,0,0,1,.22-.5.69.69,0,0,1,1,0,.66.66,0,0,1,.21.5"/>
            <path class="cls-2"
                  d="M211.14,66.57a2.16,2.16,0,0,0-.69-.65,2,2,0,0,0-1-.26,2.46,2.46,0,0,0-1.07.19,2.33,2.33,0,0,0-.81.57,2.5,2.5,0,0,0-.51.87,3.18,3.18,0,0,0-.18,1.08,3.24,3.24,0,0,0,.18,1.09,2.5,2.5,0,0,0,.51.87,2.47,2.47,0,0,0,.81.57,2.62,2.62,0,0,0,1.07.19,1.94,1.94,0,0,0,1-.27,2.13,2.13,0,0,0,.69-.64l.79.6a3.28,3.28,0,0,1-1.15.88,3.49,3.49,0,0,1-1.35.3,3.82,3.82,0,0,1-1.5-.25,3.24,3.24,0,0,1-1.14-.75,3.37,3.37,0,0,1-.73-1.15,4.19,4.19,0,0,1-.25-1.44,4.27,4.27,0,0,1,.25-1.44A3.27,3.27,0,0,1,207.93,65a4,4,0,0,1,1.5-.26,3.49,3.49,0,0,1,1.35.3,3.31,3.31,0,0,1,1.15.89Z"/>
            <polygon class="cls-2"
                     points="214.16 68.04 217.38 64.96 218.83 64.96 215.43 68.08 219.19 71.79 217.71 71.79 214.16 68.2 214.16 71.79 213.2 71.79 213.2 60.76 214.16 60.76 214.16 68.04"/>
            <path class="cls-2"
                  d="M222.94,63.56h-.86l1.46-2.1h1.33Zm1.17,4.83-.91,0a5.75,5.75,0,0,0-1,.18,2.32,2.32,0,0,0-.86.43,1,1,0,0,0-.36.8,1.16,1.16,0,0,0,.14.58,1.06,1.06,0,0,0,.37.39A1.34,1.34,0,0,0,222,71a2.22,2.22,0,0,0,.57.07,2.19,2.19,0,0,0,.92-.18,1.78,1.78,0,0,0,.64-.47,1.86,1.86,0,0,0,.39-.7,2.71,2.71,0,0,0,.13-.86v-.49Zm.5-.79v-.18a1.56,1.56,0,0,0-1.75-1.76,3,3,0,0,0-2.09.8l-.58-.68a3.8,3.8,0,0,1,2.88-1,3.11,3.11,0,0,1,1,.15,2.1,2.1,0,0,1,.8.45,2.13,2.13,0,0,1,.54.75,2.69,2.69,0,0,1,.2,1.07v3.06a7.88,7.88,0,0,0,0,.82c0,.29,0,.52.08.71h-.94a4.46,4.46,0,0,1-.06-.54,5.62,5.62,0,0,1,0-.57h0a2.57,2.57,0,0,1-1,1,3.06,3.06,0,0,1-1.41.3,3.22,3.22,0,0,1-.88-.12,2.21,2.21,0,0,1-.75-.38,1.87,1.87,0,0,1-.52-.63,1.75,1.75,0,0,1-.2-.87,1.84,1.84,0,0,1,.43-1.3,2.68,2.68,0,0,1,1.08-.71,5.12,5.12,0,0,1,1.39-.29q.74-.06,1.35-.06Z"/>
            <path class="cls-2"
                  d="M235.39,65.83h-2v4a2.16,2.16,0,0,0,.07.62.82.82,0,0,0,.21.37A.61.61,0,0,0,234,71a1.25,1.25,0,0,0,.4.06,1.86,1.86,0,0,0,.51-.08,1.72,1.72,0,0,0,.48-.19l0,.89a3,3,0,0,1-1.3.25,2.36,2.36,0,0,1-.58-.07,1.37,1.37,0,0,1-.55-.28,1.45,1.45,0,0,1-.4-.55,2.19,2.19,0,0,1-.17-.92V65.83H231V65h1.44V63h1V65h2Z"/>
            <path class="cls-2"
                  d="M242,67.85a2,2,0,0,0-2.22-2.19,2.33,2.33,0,0,0-.9.18,2.66,2.66,0,0,0-.77.49,2.37,2.37,0,0,0-.52.7,1.84,1.84,0,0,0-.2.82Zm-4.64.79a2.84,2.84,0,0,0,.25,1,2.72,2.72,0,0,0,.54.78,2.68,2.68,0,0,0,.77.52,2.52,2.52,0,0,0,.95.19,2.44,2.44,0,0,0,1.34-.36,2.79,2.79,0,0,0,.85-.82l.74.61a3.69,3.69,0,0,1-1.35,1.11,3.79,3.79,0,0,1-1.58.33,3.65,3.65,0,0,1-1.41-.27,3.3,3.3,0,0,1-1.11-.75,3.56,3.56,0,0,1-.74-1.14,3.72,3.72,0,0,1-.27-1.43,4,4,0,0,1,.26-1.43,3.77,3.77,0,0,1,.73-1.14,3.4,3.4,0,0,1,2.45-1,3.41,3.41,0,0,1,1.39.28,3.12,3.12,0,0,1,1,.74,3,3,0,0,1,.63,1.08,3.81,3.81,0,0,1,.22,1.32v.44Z"/>
            <path class="cls-2"
                  d="M249.79,66.57a2.16,2.16,0,0,0-.69-.65,2,2,0,0,0-1-.26,2.44,2.44,0,0,0-1.07.19,2.24,2.24,0,0,0-.81.57,2.36,2.36,0,0,0-.51.87,3.18,3.18,0,0,0-.18,1.08,3.24,3.24,0,0,0,.18,1.09A2.36,2.36,0,0,0,247,70.9a2.59,2.59,0,0,0,1.07.19,1.94,1.94,0,0,0,1-.27,2.13,2.13,0,0,0,.69-.64l.79.6a3.23,3.23,0,0,1-1.16.88,3.4,3.4,0,0,1-1.34.3,3.82,3.82,0,0,1-1.5-.25,3.37,3.37,0,0,1-1.15-.75,3.5,3.5,0,0,1-.72-1.15,4.19,4.19,0,0,1-.25-1.44,4.27,4.27,0,0,1,.25-1.44A3.19,3.19,0,0,1,246.58,65a4,4,0,0,1,1.5-.26,3.4,3.4,0,0,1,1.34.3,3.26,3.26,0,0,1,1.16.89Z"/>
            <path class="cls-2"
                  d="M251.85,60.76h1v5.29h0a2.36,2.36,0,0,1,.4-.51,3.17,3.17,0,0,1,.56-.4,2.85,2.85,0,0,1,.65-.26,2.66,2.66,0,0,1,.68-.1,2.48,2.48,0,0,1,1.94.7,2.83,2.83,0,0,1,.63,2v4.34h-1V68a3.27,3.27,0,0,0-.39-1.75,1.62,1.62,0,0,0-1.46-.6l-.41.06a1.76,1.76,0,0,0-.71.32,2.31,2.31,0,0,0-.66.79,2.94,2.94,0,0,0-.29,1.45v3.51h-1Z"/>
            <path class="cls-2"
                  d="M260.88,65a5.07,5.07,0,0,1,0,.55c0,.18,0,.36,0,.54h0a2.42,2.42,0,0,1,.41-.51,2.77,2.77,0,0,1,.55-.4,3,3,0,0,1,.65-.26,2.73,2.73,0,0,1,.68-.1,2.46,2.46,0,0,1,1.94.7,2.83,2.83,0,0,1,.63,2v4.34h-1V68a3.26,3.26,0,0,0-.4-1.75,1.62,1.62,0,0,0-1.46-.6l-.41.06a1.76,1.76,0,0,0-.71.32,2.43,2.43,0,0,0-.66.79,3.05,3.05,0,0,0-.29,1.45v3.51h-1V66.46c0-.18,0-.42,0-.7s0-.55-.05-.8Z"/>
            <path class="cls-2"
                  d="M269.25,71.79h-1V65h1Zm.22-9.46a.65.65,0,0,1-.22.51.72.72,0,0,1-.48.19.68.68,0,0,1-.48-.19.65.65,0,0,1-.22-.51.63.63,0,0,1,.22-.5.69.69,0,0,1,.48-.2.73.73,0,0,1,.48.2.63.63,0,0,1,.22.5"/>
            <polygon class="cls-2"
                     points="272.53 68.04 275.76 64.96 277.2 64.96 273.8 68.08 277.56 71.79 276.08 71.79 272.53 68.2 272.53 71.79 271.57 71.79 271.57 60.76 272.53 60.76 272.53 68.04"/>
            <path class="cls-2"
                  d="M282.48,68.39l-.91,0a6.06,6.06,0,0,0-1.05.18,2.4,2.4,0,0,0-.86.43,1,1,0,0,0-.36.8,1.1,1.1,0,0,0,.51,1,1.41,1.41,0,0,0,.52.22,2.25,2.25,0,0,0,.58.07,2.14,2.14,0,0,0,.91-.18,1.81,1.81,0,0,0,.65-.47,2.18,2.18,0,0,0,.39-.7,3,3,0,0,0,.12-.86v-.49Zm.5-.79v-.18a1.55,1.55,0,0,0-1.75-1.76,3.05,3.05,0,0,0-2.09.8l-.58-.68a3.81,3.81,0,0,1,2.89-1,3,3,0,0,1,.95.15,2.1,2.1,0,0,1,.8.45,2.13,2.13,0,0,1,.54.75,2.69,2.69,0,0,1,.2,1.07v3.06a7.88,7.88,0,0,0,0,.82c0,.29,0,.52.08.71h-.93a3.06,3.06,0,0,1-.07-.54,5.62,5.62,0,0,1,0-.57h0a2.6,2.6,0,0,1-1,1,3,3,0,0,1-1.41.3,3.15,3.15,0,0,1-.87-.12,2.17,2.17,0,0,1-.76-.38,2,2,0,0,1-.29-2.8,2.68,2.68,0,0,1,1.08-.71,5.2,5.2,0,0,1,1.39-.29q.74-.06,1.35-.06Z"/>
            <path class="cls-1"
                  d="M391.49,42.86a4.35,4.35,0,0,1,4.35,4.34v.26h-3.07V47.2a1.26,1.26,0,0,0-1.28-1.27h-5.62a1.26,1.26,0,0,0-1.27,1.27v5.62a1.26,1.26,0,0,0,1.27,1.28h5.62a1.26,1.26,0,0,0,1.28-1.28v-.25h3.07v.25a4.37,4.37,0,0,1-4.35,4.35h-5.62a4.35,4.35,0,0,1-4.34-4.35V47.2a4.34,4.34,0,0,1,4.34-4.34Z"/>
            <path class="cls-1"
                  d="M397.41,45.93V42.86h10a4.35,4.35,0,0,1,0,8.69h-5.62a1.28,1.28,0,1,0,0,2.55h10v3.07h-10a4.35,4.35,0,1,1,0-8.69h5.62a1.28,1.28,0,1,0,0-2.55Z"/>
        </g>
    </g>
</svg>