<?xml version="1.0" encoding="utf-8"?>
<!-- Generator: Adobe Illustrator 24.2.0, SVG Export Plug-In . SVG Version: 6.00 Build 0)  -->
<svg version="1.1" id="Vrstva_1" xmlns="http://www.w3.org/2000/svg" xmlns:xlink="http://www.w3.org/1999/xlink" x="0px" y="0px"
	 viewBox="0 0 227.4 93.4" style="enable-background:new 0 0 227.4 93.4;" xml:space="preserve">
<style type="text/css">
	.st0{fill:#0E2243;}
	.st1{fill:#DD0016;}
</style>
<g>
	<g>
		<path class="st0" d="M92.6,38.9c2.9,0,4.6,1.4,5.5,3.3l0.5-2.1c0.1-0.6,0.3-0.8,0.9-0.8h0.3c0.7,0,0.8,0.2,0.8,0.8v22.6
			c0,0.6-0.2,0.8-0.8,0.8h-1c-0.6,0-0.8-0.2-0.8-0.8v-9.4c-1.1,1.9-2.8,3.1-5.5,3.1c-4.2,0-7.3-2.7-7.3-8.6
			C85.2,41.9,88.3,38.9,92.6,38.9z M98,48.6V47c-0.2-2.5-1.4-5.8-5.1-5.8c-2.9,0-5,2-5,6.6c0,4.6,2.1,6.3,4.9,6.3
			C96.6,54.1,97.7,51,98,48.6z"/>
		<path class="st0" d="M105.9,40.1c0-0.6,0.1-0.8,0.8-0.8h1c0.6,0,0.8,0.2,0.8,0.8v2c0.4-1.9,2.2-3.2,4.7-3.2c1.8,0,4,0.8,4.9,3
			c0.7-1.8,2.6-3,5.1-3c2.6,0,5.5,1.4,5.5,5.5v10.8c0,0.6-0.1,0.8-0.8,0.8h-1c-0.7,0-0.8-0.2-0.8-0.8v-9.9c0-2.7-1.4-4-3.5-4
			c-2,0-3.9,1.2-4,4.6v9.4c0,0.6-0.2,0.8-0.8,0.8h-1c-0.7,0-0.8-0.2-0.8-0.8v-9.9c0-2.5-1.4-4-3.4-4c-2.1,0-4,1.5-4,5v8.9
			c0,0.6-0.2,0.8-0.8,0.8h-1c-0.7,0-0.8-0.2-0.8-0.8L105.9,40.1L105.9,40.1z"/>
		<path class="st0" d="M135.2,31.2c1.3,0,1.9,0.9,1.9,2c0,1.1-0.7,1.9-1.9,1.9c-1.3,0-2-0.8-2-1.9C133.2,32.1,133.9,31.2,135.2,31.2
			z M133.9,40.1c0-0.6,0.1-0.8,0.8-0.8h1c0.7,0,0.8,0.2,0.8,0.8v15.1c0,0.6-0.1,0.8-0.8,0.8h-1c-0.7,0-0.8-0.2-0.8-0.8V40.1z"/>
		<path class="st0" d="M144.7,42.1c0.5-1.9,2.7-3.2,5.4-3.2c3.3,0,5.5,2.1,5.5,6.2v10.1c0,0.6-0.1,0.8-0.8,0.8h-1
			c-0.7,0-0.8-0.2-0.8-0.8v-9.6c0-2.8-1.4-4.3-3.6-4.3c-2.3,0-4.6,1.4-4.7,5.1v8.8c0,0.6-0.1,0.8-0.8,0.8h-1c-0.7,0-0.8-0.2-0.8-0.8
			V40.1c0-0.6,0.1-0.8,0.8-0.8h1c0.7,0,0.8,0.2,0.8,0.8L144.7,42.1L144.7,42.1z"/>
		<path class="st0" d="M174.2,47.4v0.5c0,0.6-0.2,0.8-0.8,0.8h-11.1c0.3,3.6,2.1,5.4,5.1,5.4c2.1,0,3.7-0.9,4.7-1.8
			c0.5-0.3,0.7-0.3,1,0l0.8,0.7c0.3,0.3,0.3,0.6,0,0.9c-1.3,1.2-3.2,2.5-6.4,2.5c-4.4,0-7.9-2.4-7.9-8.7c0-5.9,3.1-8.8,7.4-8.8
			C171.4,38.9,174.2,41.5,174.2,47.4z M162.3,46.5h9.2c-0.2-3.3-1.6-5.3-4.6-5.3C164.2,41.2,162.6,43.1,162.3,46.5z"/>
		<path class="st0" d="M188.2,40.7c0,0.6-0.3,0.7-0.7,0.6c-0.4-0.1-0.8-0.1-1.2-0.1c-1.8,0-4.5,1.7-4.5,6.7v7.3
			c0,0.6-0.1,0.8-0.8,0.8H180c-0.7,0-0.8-0.2-0.8-0.8V40.1c0-0.6,0.1-0.8,0.8-0.8h0.8c0.6,0,0.8,0.2,0.8,0.8v2.8
			c0.5-2.4,2.3-4.1,4.9-4.1c0.5,0,0.8,0,1.1,0.1c0.4,0.1,0.6,0.2,0.6,0.8L188.2,40.7L188.2,40.7z"/>
		<path class="st0" d="M201.3,40.5c0.4,0.3,0.7,0.6,0.2,1.1l-0.6,0.6c-0.5,0.5-0.8,0.4-1.2,0.1c-0.9-0.6-1.8-1-3.2-1
			c-1.6,0-2.9,0.6-2.9,2.1c0,3.6,8.6,2,8.6,8c0,3-2,5.1-6.1,5.1c-2.8,0-4.7-0.9-5.6-2c-0.3-0.3-0.4-0.6,0-1l0.7-0.7
			c0.5-0.5,0.7-0.4,1-0.1c0.8,0.7,1.9,1.5,4,1.5c2,0,3.4-0.8,3.4-2.8c0-4-8.6-2.1-8.6-7.9c0-3.4,2.8-4.5,5.6-4.5
			C198.9,38.9,200.3,39.7,201.3,40.5z"/>
	</g>
	<circle class="st1" cx="78" cy="68.6" r="4.9"/>
	<path class="st0" d="M49.7,19.9c-14.6,0-26.4,11.8-26.4,26.4c0,14.6,11.8,26.4,26.4,26.4c14.6,0,26.4-11.8,26.4-26.4
		C76.2,31.8,64.3,19.9,49.7,19.9z M60.8,56.6c0,0.6-0.1,0.7-0.7,0.7h-4.1c-0.6,0-0.7-0.2-0.7-0.7v-0.9c0-0.6,0.2-0.7,0.7-0.7h2.3V38
		l-7,10.1c-0.3,0.4-0.4,0.7-0.9,0.7h-1.1c-0.6,0-0.6-0.3-0.9-0.7l-7-10.1v17h2.3c0.6,0,0.7,0.2,0.7,0.7v0.9c0,0.6-0.2,0.7-0.7,0.7
		h-4.1c-0.6,0-0.7-0.2-0.7-0.7V36.1c0-0.6,0.1-0.7,0.7-0.7h2.6c0.6,0,0.6,0.2,0.9,0.7l6.7,9.7l6.7-9.7c0.3-0.4,0.4-0.7,0.9-0.7H60
		c0.6,0,0.7,0.2,0.7,0.7V56.6z"/>
</g>
</svg>
